<mxfile host="ea6cca79-57b5-443c-adba-43294d0459c5" modified="2020-08-16T13:59:32.068Z" agent="5.0 (Macintosh; Intel Mac OS X 10_15_5) AppleWebKit/537.36 (KHTML, like Gecko) Code/1.48.0 Chrome/78.0.3904.130 Electron/7.3.2 Safari/537.36" etag="sc_9lXovLa1r-KaHWv9y" version="13.1.3">
    <diagram id="6hGFLwfOUW9BJ-s0fimq" name="Page-1">
        <mxGraphModel dx="532" dy="-744" grid="1" gridSize="10" guides="1" tooltips="1" connect="1" arrows="1" fold="1" page="1" pageScale="1" pageWidth="827" pageHeight="1169" math="0" shadow="0">
            <root>
                <mxCell id="0"/>
                <mxCell id="1" parent="0"/>
                <mxCell id="102" value="" style="rounded=0;whiteSpace=wrap;html=1;strokeColor=#FFFFFF;strokeWidth=1;fillColor=none;fontColor=#0A0A0A;" parent="1" vertex="1">
                    <mxGeometry x="569" y="1490.5" width="247.8" height="220" as="geometry"/>
                </mxCell>
                <mxCell id="99" value="" style="rounded=0;whiteSpace=wrap;html=1;strokeColor=#FFFFFF;strokeWidth=1;fillColor=none;fontColor=#0A0A0A;" parent="1" vertex="1">
                    <mxGeometry x="122.19999999999999" y="1650.5" width="247.8" height="220" as="geometry"/>
                </mxCell>
                <mxCell id="95" value="" style="rounded=0;whiteSpace=wrap;html=1;strokeColor=#FFFFFF;strokeWidth=1;fillColor=none;fontColor=#0A0A0A;" parent="1" vertex="1">
                    <mxGeometry x="150" y="1360" width="168" height="141" as="geometry"/>
                </mxCell>
                <mxCell id="70" value="Public subnet a" style="points=[[0,0],[0.25,0],[0.5,0],[0.75,0],[1,0],[1,0.25],[1,0.5],[1,0.75],[1,1],[0.75,1],[0.5,1],[0.25,1],[0,1],[0,0.75],[0,0.5],[0,0.25]];outlineConnect=0;gradientColor=none;html=1;whiteSpace=wrap;fontSize=12;fontStyle=0;shape=mxgraph.aws4.group;grIcon=mxgraph.aws4.group_security_group;grStroke=0;strokeColor=#248814;fillColor=#ffffff;verticalAlign=top;align=left;spacingLeft=30;fontColor=#248814;dashed=0;strokeWidth=7;" parent="1" vertex="1">
                    <mxGeometry x="139" y="1685.5" width="200" height="155" as="geometry"/>
                </mxCell>
                <mxCell id="72" value="" style="outlineConnect=0;dashed=0;verticalLabelPosition=bottom;verticalAlign=top;align=center;html=1;shape=mxgraph.aws3.ec2;fillColor=#F58534;gradientColor=none;" parent="1" vertex="1">
                    <mxGeometry x="200" y="1734.5" width="60" height="57" as="geometry"/>
                </mxCell>
                <mxCell id="73" value="" style="html=1;aspect=fixed;strokeColor=none;shadow=0;align=center;verticalAlign=top;fillColor=#3B8DF1;shape=mxgraph.gcp2.key" parent="1" vertex="1">
                    <mxGeometry x="240.92000000000004" y="1740.5" width="42.55" height="20" as="geometry"/>
                </mxCell>
                <mxCell id="75" style="rounded=0;orthogonalLoop=1;jettySize=auto;html=1;dashed=1;fontColor=#0A0A0A;strokeColor=#0A0A0A;endArrow=none;endFill=0;" parent="1" source="74" target="72" edge="1">
                    <mxGeometry relative="1" as="geometry"/>
                </mxCell>
                <mxCell id="80" style="edgeStyle=none;rounded=0;orthogonalLoop=1;jettySize=auto;html=1;dashed=1;strokeColor=#CC0000;fontColor=#0A0A0A;endArrow=none;endFill=0;entryX=0;entryY=0.5;entryDx=0;entryDy=0;" parent="1" source="74" target="101" edge="1">
                    <mxGeometry relative="1" as="geometry">
                        <mxPoint x="550" y="1600.5" as="targetPoint"/>
                    </mxGeometry>
                </mxCell>
                <mxCell id="86" value="" style="edgeStyle=none;rounded=0;orthogonalLoop=1;jettySize=auto;html=1;dashed=1;endArrow=none;endFill=0;strokeColor=#CC0000;fontColor=#0A0A0A;fillColor=#a20025;" parent="1" source="74" edge="1">
                    <mxGeometry relative="1" as="geometry">
                        <mxPoint x="127.79999999999995" y="1600.5" as="targetPoint"/>
                    </mxGeometry>
                </mxCell>
                <mxCell id="97" style="edgeStyle=none;rounded=0;orthogonalLoop=1;jettySize=auto;html=1;dashed=1;endArrow=none;endFill=0;strokeColor=#CC0000;fontColor=#0A0A0A;entryX=0.5;entryY=1;entryDx=0;entryDy=0;entryPerimeter=0;" parent="1" source="74" target="94" edge="1">
                    <mxGeometry relative="1" as="geometry"/>
                </mxCell>
                <mxCell id="74" value="" style="aspect=fixed;html=1;points=[];align=center;image;fontSize=12;image=img/lib/mscae/Network_Security_Groups_Classic.svg;" parent="1" vertex="1">
                    <mxGeometry x="207.8" y="1570.5" width="44.4" height="60" as="geometry"/>
                </mxCell>
                <mxCell id="78" value="out: 80, 443 (HTTP/HTTPS)" style="text;html=1;align=center;verticalAlign=middle;resizable=0;points=[];autosize=1;" parent="1" vertex="1">
                    <mxGeometry x="230" y="1501" width="160" height="20" as="geometry"/>
                </mxCell>
                <mxCell id="92" value="&lt;font color=&quot;#ffffff&quot;&gt;out: &quot;10.1.10.0 : 5432&quot;, &quot;10.1.11.0: 5432&quot; (Private Subnet A/B)&lt;/font&gt;" style="text;html=1;align=center;verticalAlign=middle;resizable=0;points=[];autosize=1;fontColor=#0A0A0A;" parent="1" vertex="1">
                    <mxGeometry x="252.2" y="1580.5" width="340" height="20" as="geometry"/>
                </mxCell>
                <mxCell id="94" value="" style="outlineConnect=0;dashed=0;verticalLabelPosition=bottom;verticalAlign=top;align=center;html=1;shape=mxgraph.aws3.ecr;fillColor=#F58534;gradientColor=none;strokeColor=#FFFFFF;strokeWidth=7;fontColor=#0A0A0A;" parent="1" vertex="1">
                    <mxGeometry x="203" y="1400.5" width="54" height="60" as="geometry"/>
                </mxCell>
                <mxCell id="96" value="&lt;font color=&quot;#ffffff&quot;&gt;context: ecr&lt;/font&gt;" style="text;html=1;align=center;verticalAlign=middle;resizable=0;points=[];autosize=1;fontColor=#0A0A0A;" parent="1" vertex="1">
                    <mxGeometry x="237.99999999999997" y="1360" width="80" height="20" as="geometry"/>
                </mxCell>
                <mxCell id="98" value="&lt;font color=&quot;#ffffff&quot;&gt;in: 0.0.0.0/0: 22 (SSH)&lt;/font&gt;" style="text;html=1;align=center;verticalAlign=middle;resizable=0;points=[];autosize=1;fontColor=#0A0A0A;" parent="1" vertex="1">
                    <mxGeometry y="1590.5" width="130" height="20" as="geometry"/>
                </mxCell>
                <mxCell id="100" value="&lt;font color=&quot;#ffffff&quot;&gt;context: ec2&lt;/font&gt;" style="text;html=1;align=center;verticalAlign=middle;resizable=0;points=[];autosize=1;fontColor=#0A0A0A;" parent="1" vertex="1">
                    <mxGeometry x="289" y="1650.5" width="80" height="20" as="geometry"/>
                </mxCell>
                <mxCell id="106" value="" style="rounded=0;whiteSpace=wrap;html=1;" parent="1" vertex="1">
                    <mxGeometry x="328.72" y="1970.5" width="460" height="240" as="geometry"/>
                </mxCell>
                <mxCell id="107" value="" style="outlineConnect=0;dashed=0;verticalLabelPosition=bottom;verticalAlign=top;align=center;html=1;shape=mxgraph.aws3.policy;fillColor=#5294CF;gradientColor=none;" parent="1" vertex="1">
                    <mxGeometry x="698.72" y="2055.5" width="55.5" height="90" as="geometry"/>
                </mxCell>
                <mxCell id="108" style="edgeStyle=none;rounded=0;orthogonalLoop=1;jettySize=auto;html=1;startArrow=ERone;startFill=0;endArrow=ERone;endFill=0;" parent="1" source="109" target="118" edge="1">
                    <mxGeometry relative="1" as="geometry"/>
                </mxCell>
                <mxCell id="120" style="edgeStyle=orthogonalEdgeStyle;rounded=0;orthogonalLoop=1;jettySize=auto;html=1;exitX=0.005;exitY=0.63;exitDx=0;exitDy=0;exitPerimeter=0;dashed=1;endArrow=none;endFill=0;strokeColor=#0A0A0A;fontColor=#0A0A0A;entryX=0.343;entryY=0.976;entryDx=0;entryDy=0;entryPerimeter=0;" parent="1" source="109" target="124" edge="1">
                    <mxGeometry relative="1" as="geometry">
                        <mxPoint x="160" y="2010.5" as="targetPoint"/>
                    </mxGeometry>
                </mxCell>
                <mxCell id="109" value="" style="html=1;dashed=0;whitespace=wrap;fillColor=#2875E2;strokeColor=#ffffff;points=[[0.005,0.63,0],[0.1,0.2,0],[0.9,0.2,0],[0.5,0,0],[0.995,0.63,0],[0.72,0.99,0],[0.5,1,0],[0.28,0.99,0]];shape=mxgraph.kubernetes.icon;prIcon=role" parent="1" vertex="1">
                    <mxGeometry x="348.72" y="2091.5" width="50" height="48" as="geometry"/>
                </mxCell>
                <mxCell id="110" value="" style="group" parent="1" vertex="1" connectable="0">
                    <mxGeometry x="478.72" y="2055.5" width="150" height="90" as="geometry"/>
                </mxCell>
                <mxCell id="111" value="" style="shape=internalStorage;whiteSpace=wrap;html=1;backgroundOutline=1;" parent="110" vertex="1">
                    <mxGeometry width="150" height="90" as="geometry"/>
                </mxCell>
                <mxCell id="112" value="role-policy attachment" style="text;html=1;align=center;verticalAlign=middle;resizable=0;points=[];autosize=1;" parent="110" vertex="1">
                    <mxGeometry x="20" width="130" height="20" as="geometry"/>
                </mxCell>
                <mxCell id="113" style="rounded=0;orthogonalLoop=1;jettySize=auto;html=1;entryX=0.9;entryY=0.2;entryDx=0;entryDy=0;entryPerimeter=0;endArrow=ERone;endFill=0;startArrow=ERmandOne;startFill=0;" parent="1" source="111" target="109" edge="1">
                    <mxGeometry relative="1" as="geometry"/>
                </mxCell>
                <mxCell id="114" style="edgeStyle=none;rounded=0;orthogonalLoop=1;jettySize=auto;html=1;exitX=1;exitY=0.5;exitDx=0;exitDy=0;startArrow=ERmandOne;startFill=0;endArrow=ERone;endFill=0;entryX=0;entryY=0.5;entryDx=0;entryDy=0;entryPerimeter=0;" parent="1" source="111" target="107" edge="1">
                    <mxGeometry relative="1" as="geometry">
                        <mxPoint x="688.72" y="2075.5" as="targetPoint"/>
                    </mxGeometry>
                </mxCell>
                <mxCell id="115" value="ecr-readonly" style="text;html=1;align=center;verticalAlign=middle;resizable=0;points=[];autosize=1;" parent="1" vertex="1">
                    <mxGeometry x="686.47" y="2145.5" width="80" height="20" as="geometry"/>
                </mxCell>
                <mxCell id="116" value="role &quot;x&quot;" style="text;html=1;align=center;verticalAlign=middle;resizable=0;points=[];autosize=1;" parent="1" vertex="1">
                    <mxGeometry x="378.72" y="2145.5" width="50" height="20" as="geometry"/>
                </mxCell>
                <mxCell id="117" value="context: iam" style="text;html=1;align=center;verticalAlign=middle;resizable=0;points=[];autosize=1;" parent="1" vertex="1">
                    <mxGeometry x="708.72" y="1970.5" width="80" height="20" as="geometry"/>
                </mxCell>
                <mxCell id="118" value="" style="pointerEvents=1;shadow=0;dashed=0;html=1;strokeColor=none;fillColor=#505050;labelPosition=center;verticalLabelPosition=bottom;verticalAlign=top;outlineConnect=0;align=center;shape=mxgraph.office.security.policy;direction=east;" parent="1" vertex="1">
                    <mxGeometry x="354.22" y="1990.5" width="39" height="36" as="geometry"/>
                </mxCell>
                <mxCell id="119" value="assume role: principal 'ec2'" style="text;html=1;align=center;verticalAlign=middle;resizable=0;points=[];autosize=1;" parent="1" vertex="1">
                    <mxGeometry x="383.72" y="1998.5" width="160" height="20" as="geometry"/>
                </mxCell>
                <mxCell id="124" value="" style="html=1;verticalLabelPosition=bottom;align=center;labelBackgroundColor=#ffffff;verticalAlign=top;strokeWidth=2;strokeColor=#0080F0;shadow=0;dashed=0;shape=mxgraph.ios7.icons.bag;fillColor=none;fontColor=#0A0A0A;" parent="1" vertex="1">
                    <mxGeometry x="242.2" y="1774.5" width="21" height="21" as="geometry"/>
                </mxCell>
                <mxCell id="125" value="&lt;font color=&quot;#007fff&quot;&gt;instance profile&lt;/font&gt;" style="text;html=1;align=center;verticalAlign=middle;resizable=0;points=[];autosize=1;fontColor=#0A0A0A;fontStyle=1" parent="1" vertex="1">
                    <mxGeometry x="154" y="1791.5" width="100" height="20" as="geometry"/>
                </mxCell>
                <mxCell id="126" value="&lt;font color=&quot;#ffffff&quot;&gt;or internet&lt;/font&gt;" style="text;html=1;align=center;verticalAlign=middle;resizable=0;points=[];autosize=1;fontColor=#0A0A0A;" parent="1" vertex="1">
                    <mxGeometry x="390" y="1501" width="70" height="20" as="geometry"/>
                </mxCell>
                <mxCell id="103" value="&lt;font color=&quot;#ffffff&quot;&gt;context: ec2&lt;/font&gt;" style="text;html=1;align=center;verticalAlign=middle;resizable=0;points=[];autosize=1;fontColor=#0A0A0A;" parent="1" vertex="1">
                    <mxGeometry x="736.8" y="1490.5" width="80" height="20" as="geometry"/>
                </mxCell>
                <mxCell id="101" value="Private subnet a/b" style="points=[[0,0],[0.25,0],[0.5,0],[0.75,0],[1,0],[1,0.25],[1,0.5],[1,0.75],[1,1],[0.75,1],[0.5,1],[0.25,1],[0,1],[0,0.75],[0,0.5],[0,0.25]];outlineConnect=0;gradientColor=none;html=1;whiteSpace=wrap;fontSize=12;fontStyle=0;shape=mxgraph.aws4.group;grIcon=mxgraph.aws4.group_security_group;grStroke=0;strokeColor=#147EBA;fillColor=#E6F2F8;verticalAlign=top;align=left;spacingLeft=30;fontColor=#147EBA;dashed=0;" parent="1" vertex="1">
                    <mxGeometry x="592.4" y="1523" width="201" height="155" as="geometry"/>
                </mxCell>
                <mxCell id="127" value="&lt;meta charset=&quot;utf-8&quot;&gt;&lt;div style=&quot;color: rgb(212, 212, 212); background-color: rgb(30, 30, 30); font-family: FiraCode-Retina, Menlo, Monaco, &amp;quot;Courier New&amp;quot;, monospace; font-weight: normal; font-size: 16px; line-height: 24px;&quot;&gt;&lt;div&gt;&lt;span style=&quot;color: #ce9178;&quot;&gt;&quot;arn:aws:iam::aws:policy/AmazonEC2ContainerRegistryReadOnly&quot;&lt;/span&gt;&lt;/div&gt;&lt;/div&gt;" style="text;html=1;align=center;verticalAlign=middle;resizable=0;points=[];autosize=1;" vertex="1" parent="1">
                    <mxGeometry x="138.72" y="1330" width="490" height="30" as="geometry"/>
                </mxCell>
            </root>
        </mxGraphModel>
    </diagram>
</mxfile>